<svg width="40" height="40" viewBox="0 0 40 40" fill="none" xmlns="http://www.w3.org/2000/svg">
<path d="M35.1166 8.71668C32.4333 8.45001 29.75 8.25001 27.05 8.10001V8.08334L26.6833 5.91668C26.4333 4.38334 26.0666 2.08334 22.1666 2.08334H17.8C13.9166 2.08334 13.55 4.28334 13.2833 5.90001L12.9333 8.03334C11.3833 8.13334 9.83331 8.23334 8.28331 8.38334L4.88331 8.71668C4.18331 8.78334 3.68331 9.40001 3.74998 10.0833C3.81664 10.7667 4.41664 11.2667 5.11664 11.2L8.51664 10.8667C17.25 10 26.05 10.3333 34.8833 11.2167H35.0166C35.65 11.2167 36.2 10.7333 36.2666 10.0833C36.2917 9.75041 36.1854 9.42089 35.9704 9.16542C35.7555 8.90995 35.449 8.74886 35.1166 8.71668Z" fill="#3CB189"/>
<path opacity="0.399" d="M32.05 13.5667C31.65 13.15 31.1 12.9167 30.5334 12.9167H9.4667C8.90003 12.9167 8.33336 13.15 7.95003 13.5667C7.5667 13.9833 7.35003 14.55 7.38336 15.1333L8.4167 32.2333C8.60003 34.7667 8.83336 37.9333 14.65 37.9333H25.35C31.1667 37.9333 31.4 34.7833 31.5834 32.2333L32.6167 15.15C32.65 14.55 32.4334 13.9833 32.05 13.5667Z" fill="#3CB189"/>
<path fill-rule="evenodd" clip-rule="evenodd" d="M15.9667 28.3333C15.9667 28.0018 16.0984 27.6839 16.3328 27.4494C16.5672 27.215 16.8852 27.0833 17.2167 27.0833H22.7667C23.0982 27.0833 23.4162 27.215 23.6506 27.4494C23.885 27.6839 24.0167 28.0018 24.0167 28.3333C24.0167 28.6648 23.885 28.9828 23.6506 29.2172C23.4162 29.4516 23.0982 29.5833 22.7667 29.5833H17.2167C16.8852 29.5833 16.5672 29.4516 16.3328 29.2172C16.0984 28.9828 15.9667 28.6648 15.9667 28.3333ZM14.5834 21.6667C14.5834 21.3351 14.7151 21.0172 14.9495 20.7828C15.1839 20.5484 15.5019 20.4167 15.8334 20.4167H24.1667C24.4982 20.4167 24.8162 20.5484 25.0506 20.7828C25.285 21.0172 25.4167 21.3351 25.4167 21.6667C25.4167 21.9982 25.285 22.3161 25.0506 22.5505C24.8162 22.785 24.4982 22.9167 24.1667 22.9167H15.8334C15.5019 22.9167 15.1839 22.785 14.9495 22.5505C14.7151 22.3161 14.5834 21.9982 14.5834 21.6667Z" fill="#3CB189"/>
</svg>
