<svg width="40" height="40" viewBox="0 0 40 40" fill="none" xmlns="http://www.w3.org/2000/svg">
<path opacity="0.4" d="M26.6667 3.33334H13.3334C6.66671 3.33334 3.33337 6.66668 3.33337 13.3333V35C3.33337 35.9167 4.08337 36.6667 5.00004 36.6667H26.6667C33.3334 36.6667 36.6667 33.3333 36.6667 26.6667V13.3333C36.6667 6.66668 33.3334 3.33334 26.6667 3.33334Z" fill="#3CB189"/>
<path d="M27.585 12.4333C25.485 10.3333 23.4517 10.2833 21.3017 12.4333L19.985 13.75C19.8684 13.8667 19.835 14.0333 19.8684 14.1833C20.2776 15.6011 21.0395 16.892 22.0829 17.9354C23.1264 18.9789 24.4173 19.7408 25.835 20.15C25.8684 20.1667 25.9184 20.1667 25.9684 20.1667C26.085 20.1667 26.2017 20.1167 26.285 20.0333L27.585 18.7333C28.6517 17.6667 29.1684 16.65 29.1684 15.6167C29.1684 14.5333 28.6517 13.5 27.585 12.4333ZM23.9 21.1183C23.5834 20.9683 23.2834 20.8183 23 20.635C22.7667 20.5017 22.5334 20.3517 22.3167 20.185C22.1334 20.0683 21.9167 19.9017 21.7 19.7183C21.6292 19.6745 21.567 19.618 21.5167 19.5517C21.1667 19.2517 20.7667 18.8517 20.4 18.435C20.3667 18.4183 20.3167 18.335 20.25 18.235C20.0915 18.0473 19.9413 17.8527 19.8 17.6517C19.6667 17.485 19.5167 17.2517 19.3834 17.0183C19.2167 16.735 19.05 16.435 18.9167 16.135C18.7667 15.8017 18.65 15.5017 18.5334 15.2017L12.25 21.485C11.8334 21.9017 11.45 22.6683 11.3667 23.235L10.8834 26.7017C10.7667 27.435 10.9834 28.1183 11.4334 28.585C11.8167 28.9683 12.35 29.1683 12.9334 29.1683C13.0667 29.1683 13.1834 29.1517 13.3167 29.135L16.7834 28.6517C17.35 28.5683 18.1167 28.185 18.5334 27.7683L24.8167 21.485C24.5167 21.3683 24.2167 21.2517 23.9 21.1183Z" fill="#3CB189"/>
</svg>
