<svg width="40" height="40" viewBox="0 0 40 40" fill="none" xmlns="http://www.w3.org/2000/svg">
<path opacity="0.4" d="M15 12V27.9833C15 33.3333 18.3333 36.6667 23.6667 36.6667H27.9833C33.3167 36.6667 36.65 33.3333 36.65 28V12C36.6667 6.66668 33.3333 3.33334 28 3.33334H23.6667C18.3333 3.33334 15 6.66668 15 12Z" fill="#3CB189"/>
<path d="M9.28336 13.5333L3.70002 19.1167C3.21669 19.6 3.21669 20.4 3.70002 20.8833L9.28336 26.4667C9.76669 26.95 10.5667 26.95 11.05 26.4667C11.5334 25.9833 11.5334 25.1833 11.05 24.7L7.60002 21.25H25.4167C26.1 21.25 26.6667 20.6833 26.6667 20C26.6667 19.3167 26.1 18.75 25.4167 18.75H7.60002L11.05 15.3C11.3 15.05 11.4167 14.7333 11.4167 14.4167C11.4167 14.1 11.3 13.7667 11.05 13.5333C10.5667 13.0333 9.78336 13.0333 9.28336 13.5333Z" fill="#3CB189"/>
</svg>
